<?xml version="1.0" standalone="no"?>
<!DOCTYPE svg PUBLIC "-//W3C//DTD SVG 20010904//EN"
 "http://www.w3.org/TR/2001/REC-SVG-20010904/DTD/svg10.dtd">
<svg version="1.0" xmlns="http://www.w3.org/2000/svg"
 width="453.000000pt" height="340.000000pt" viewBox="0 0 453.000000 340.000000"
 preserveAspectRatio="xMidYMid meet">
<metadata>
Created by potrace 1.15, written by Peter Selinger 2001-2017
</metadata>
<g transform="translate(0.000000,340.000000) scale(0.100000,-0.100000)"
fill="#000000" stroke="none">
<path d="M547 3045 c-22 -7 -50 -24 -64 -37 -55 -50 -53 -10 -53 -1058 l0
-970 1835 0 1835 0 0 968 c0 921 -1 969 -19 1008 -21 47 -59 77 -116 93 -29 8
-518 11 -1710 11 -1388 -1 -1676 -3 -1708 -15z m3281 -172 c-1 -37 -1 -37 -5
-5 l-4 32 -1210 0 c-961 0 -1209 -3 -1209 -12 0 -7 3 -23 6 -35 l6 -23 1178 0
c647 0 1225 -3 1283 -7 l107 -6 0 -830 0 -830 -1695 4 -1695 4 0 833 0 832 34
0 c26 0 35 5 40 23 11 41 7 47 -28 47 -32 0 -35 -3 -39 -32 -4 -32 -4 -32 -5
5 l-2 37 1620 0 1620 0 -2 -37z"/>
<path d="M2225 904 c-70 -36 -80 -135 -18 -184 93 -73 208 71 126 159 -35 37
-70 45 -108 25z"/>
</g>
</svg>
