<?xml version="1.0" encoding="iso-8859-1"?>
<!-- Generator: Adobe Illustrator 19.0.0, SVG Export Plug-In . SVG Version: 6.00 Build 0)  -->
<svg version="1.1" id="Capa_1" xmlns="http://www.w3.org/2000/svg" xmlns:xlink="http://www.w3.org/1999/xlink" x="0px" y="0px"
	 viewBox="0 0 512 512" style="enable-background:new 0 0 512 512;" xml:space="preserve">
<path style="fill:#C17F49;" d="M464.191,352.742V455.75c0,26.867-21.778,48.645-48.645,48.645H96.454
	c-26.867,0-48.645-21.778-48.645-48.645V352.742H464.191z"/>
<path style="fill:#A56637;" d="M464.191,409.66v-56.918H85.826H47.809v56.918v46.09c0,26.866,21.779,48.645,48.645,48.645h38.018
	c-26.867,0-48.645-21.778-48.645-48.645v-21.817c0-13.405,10.868-24.273,24.273-24.273H464.191z"/>
<path style="fill:#C17F49;" d="M307.702,375.645h162.907c7.999,0,14.478-6.479,14.478-14.468V160.149
	c0-25.742-20.875-46.607-46.617-46.607H73.52c-25.742,0-46.607,20.865-46.607,46.607v201.028c0,7.989,6.479,14.468,14.478,14.468
	h162.907"/>
<g>
	<path style="fill:#A56637;" d="M60.368,361.177V160.149c0-25.742,20.865-46.607,46.607-46.607H73.52
		c-25.742,0-46.607,20.865-46.607,46.607v201.028c0,7.989,6.479,14.468,14.478,14.468h33.455
		C66.847,375.645,60.368,369.166,60.368,361.177z"/>
	<path style="fill:#A56637;" d="M346.553,26.755v13.819c0,10.575-8.577,19.152-19.152,19.152H183.058
		c-10.585,0-19.152-8.577-19.152-19.152V26.755c0-1.632,0.203-3.214,0.588-4.725c2.099-8.293,9.611-14.427,18.564-14.427h144.343
		c8.942,0,16.455,6.134,18.564,14.427C346.35,23.541,346.553,25.122,346.553,26.755z"/>
</g>
<path style="fill:#C17F49;" d="M345.965,22.03c-2.099,8.293-9.611,14.437-18.564,14.437H183.058
	c-8.952,0-16.465-6.144-18.564-14.437c2.099-8.293,9.611-14.427,18.564-14.427h144.343C336.343,7.603,343.856,13.737,345.965,22.03z
	"/>
<path style="fill:#F4B74A;" d="M280.852,416.614h-49.705c-14.83,0-26.852-12.022-26.852-26.852v-49.705
	c0-14.83,12.022-26.852,26.852-26.852h49.705c14.83,0,26.852,12.022,26.852,26.852v49.705
	C307.703,404.593,295.682,416.614,280.852,416.614z"/>
<rect x="234.709" y="343.618" style="fill:#A56637;" width="42.577" height="42.577"/>
<path d="M485.087,213.343c4.2,0,7.604-3.405,7.604-7.604v-45.59c0-29.892-24.324-54.211-54.221-54.211H73.52
	c-29.892,0-54.211,24.318-54.211,54.211v201.028c0,12.17,9.906,22.072,22.082,22.072h155.3v6.513
	c0,18.999,15.457,34.455,34.456,34.455h49.705c18.999,0,34.455-15.456,34.455-34.455v-6.513h155.302
	c12.176,0,22.082-9.901,22.082-22.072V231.086c0-4.199-3.404-7.604-7.604-7.604s-7.604,3.405-7.604,7.604v130.091
	c0,3.785-3.084,6.864-6.874,6.864H315.307v-27.984c0-18.999-15.456-34.456-34.455-34.456h-49.705
	c-18.999,0-34.456,15.457-34.456,34.456v27.984h-155.3c-3.79,0-6.874-3.079-6.874-6.864V160.149
	c0-21.506,17.496-39.003,39.003-39.003h364.95c21.512,0,39.013,17.496,39.013,39.003v45.59
	C477.483,209.938,480.888,213.343,485.087,213.343z M231.146,320.809h49.705c10.613,0,19.247,8.635,19.247,19.248v49.705
	c0,10.613-8.635,19.247-19.247,19.247h-49.705c-10.613,0-19.248-8.634-19.248-19.247v-49.705
	C211.898,329.444,220.533,320.809,231.146,320.809z"/>
<path d="M109.123,496.792H96.45c-22.629,0-41.04-18.411-41.04-41.04v-52.918c0-4.199-3.405-7.604-7.604-7.604
	s-7.604,3.405-7.604,7.604v52.918C40.202,486.767,65.435,512,96.45,512h12.673c4.199,0,7.604-3.405,7.604-7.604
	S113.322,496.792,109.123,496.792z"/>
<path d="M163.903,93.42c4.199,0,7.604-3.405,7.604-7.604V64.703c3.499,1.681,7.416,2.624,11.55,2.624h144.342
	c4.135,0,8.052-0.943,11.551-2.625v21.114c0,4.199,3.404,7.604,7.604,7.604s7.604-3.405,7.604-7.604V26.758
	C354.157,12.003,342.154,0,327.399,0H183.057c-14.755,0-26.758,12.003-26.758,26.758v59.057
	C156.299,90.016,159.703,93.42,163.903,93.42z M183.057,15.208h144.342c6.369,0,11.551,5.181,11.551,11.55v13.811
	c0,6.369-5.181,11.55-11.551,11.55H183.057c-6.369,0-11.55-5.181-11.55-11.55V26.758C171.507,20.389,176.688,15.208,183.057,15.208z
	"/>
<path d="M234.71,393.802h42.578c4.2,0,7.604-3.405,7.604-7.604v-42.577c0-4.199-3.404-7.604-7.604-7.604H234.71
	c-4.199,0-7.604,3.405-7.604,7.604v42.577C227.106,390.397,230.511,393.802,234.71,393.802z M242.314,351.225h27.37v27.369h-27.37
	V351.225z"/>
<path d="M464.192,395.23c-4.2,0-7.604,3.405-7.604,7.604v52.918c0,22.629-18.41,41.04-41.04,41.04H134.471
	c-4.199,0-7.604,3.405-7.604,7.604s3.405,7.604,7.604,7.604h281.077c31.015,0,56.248-25.233,56.248-56.248v-52.918
	C471.796,398.634,468.392,395.23,464.192,395.23z"/>
<g>
</g>
<g>
</g>
<g>
</g>
<g>
</g>
<g>
</g>
<g>
</g>
<g>
</g>
<g>
</g>
<g>
</g>
<g>
</g>
<g>
</g>
<g>
</g>
<g>
</g>
<g>
</g>
<g>
</g>
</svg>
